<?xml version="1.0" standalone="no"?><!DOCTYPE svg PUBLIC "-//W3C//DTD SVG 1.1//EN" "http://www.w3.org/Graphics/SVG/1.1/DTD/svg11.dtd"><svg t="1712932913565" class="icon" viewBox="0 0 1024 1024" version="1.1" xmlns="http://www.w3.org/2000/svg" p-id="7332" xmlns:xlink="http://www.w3.org/1999/xlink" width="16" height="16"><path d="M519.110443 637.45734 339.641979 637.45734c-6.338359 0-11.477402-5.13802-11.477402-11.477402 0-6.337335 5.13802-11.478426 11.477402-11.478426l179.469488 0c6.337335 0 11.478426 5.13802 11.478426 11.478426C530.588869 632.318296 525.448802 637.45734 519.110443 637.45734z" p-id="7333"></path><path d="M670.981363 514.022053 339.641979 514.022053c-6.338359 0-11.477402-5.13802-11.477402-11.477402 0-6.338359 5.13802-11.477402 11.477402-11.477402l331.339384 0c6.338359 0 11.478426 5.13802 11.478426 11.477402C682.458765 508.885056 677.319721 514.022053 670.981363 514.022053z" p-id="7334"></path><path d="M574.334185 390.586766 339.641979 390.586766c-6.338359 0-11.477402-5.13802-11.477402-11.477402 0-6.339382 5.13802-11.477402 11.477402-11.477402l234.69323 0c6.337335 0 11.477402 5.13802 11.477402 11.477402C585.810564 385.448746 580.672544 390.586766 574.334185 390.586766z" p-id="7335"></path><path d="M919.060461 889.522216c-1.12973 0-2.270716-0.165776-3.38612-0.51063-0.62524-0.192382-63.340607-19.500123-123.917264-33.3035-6.179746-1.407046-10.048867-7.560186-8.639774-13.739932 1.407046-6.181793 7.563256-10.05296 13.740956-8.640798 37.45403 8.534374 75.674517 19.131733 99.956549 26.151613-7.981788-16.190751-18.782785-38.864146-28.837792-62.45954-35.845393-84.127026-32.279171-108.028389-25.168216-119.453602 33.617655-54.018288 51.387367-114.538663 51.387367-175.018106 0-190.297091-174.452217-345.115132-388.885008-345.115132-214.43893 0-388.897288 154.818041-388.897288 345.115132 0 194.506972 178.093141 358.831528 388.897288 358.831528 60.238966 0 118.250194-12.94073 172.424025-38.45994 5.732561-2.704598 12.573363-0.24457 15.274892 5.490038 2.701528 5.734608 0.2415 12.57234-5.492084 15.273868-57.255005 26.974351-118.557186 40.651862-182.205808 40.651862-55.288211 0-109.167329-10.429537-160.13821-31.000038-48.794309-19.690458-92.807732-47.75463-130.820488-83.408665-37.766139-35.422767-67.499323-76.343759-88.375793-121.627105-21.577434-46.806026-32.516578-95.842859-32.516578-145.750525 0-49.856501 10.958586-98.213859 32.573883-143.726425 20.827351-43.856857 50.615794-83.219353 88.537476-116.994598 77.726246-69.224618 180.978864-107.348913 290.740734-107.348913 109.75573 0 213.006302 38.124296 290.730501 107.348913 37.921681 33.775244 67.708078 73.138764 88.537476 116.994598 21.61325 45.51359 32.57286 93.869924 32.57286 143.726425 0 64.771189-18.968004 129.486096-54.853305 187.148377-0.916882 1.471514-7.952112 16.736173 26.748201 98.206696 18.646686 43.779086 39.96113 84.396155 40.173978 84.800361 2.159176 4.105504 1.636267 9.106402-1.327228 12.676717C925.673066 888.047632 922.415882 889.522216 919.060461 889.522216z" p-id="7336"></path></svg>