<?xml version="1.0" standalone="no"?><!DOCTYPE svg PUBLIC "-//W3C//DTD SVG 1.1//EN" "http://www.w3.org/Graphics/SVG/1.1/DTD/svg11.dtd"><svg t="1712932978287" class="icon" viewBox="0 0 1024 1024" version="1.1" xmlns="http://www.w3.org/2000/svg" p-id="8376" xmlns:xlink="http://www.w3.org/1999/xlink" width="16" height="16"><path d="M454.890667 232.832C297.92 232.832 170.666667 360.106667 170.666667 517.077333v14.421334c0 164.949333 133.717333 298.666667 298.666666 298.666666h14.442667C640.746667 830.165333 768 702.933333 768 545.941333a21.333333 21.333333 0 1 1 42.666667 0c0 180.544-146.346667 326.890667-326.890667 326.890667H469.333333c-188.522667 0-341.333333-152.810667-341.333333-341.333333v-14.421334c0-180.544 146.346667-326.912 326.890667-326.912a21.333333 21.333333 0 1 1 0 42.666667z" fill="#000000" p-id="8377"></path><path d="M597.333333 190.165333h192a21.333333 21.333333 0 0 1 21.333334 21.333334v192a21.333333 21.333333 0 1 1-42.666667 0v-140.501334L527.082667 503.914667a21.333333 21.333333 0 0 1-30.165334-30.165334l240.917334-240.917333H597.333333a21.333333 21.333333 0 1 1 0-42.666667z" fill="#000000" p-id="8378"></path></svg>