<?xml version="1.0" standalone="no"?><!DOCTYPE svg PUBLIC "-//W3C//DTD SVG 1.1//EN" "http://www.w3.org/Graphics/SVG/1.1/DTD/svg11.dtd"><svg t="1713272125433" class="icon" viewBox="0 0 1024 1024" version="1.1" xmlns="http://www.w3.org/2000/svg" p-id="18559" data-spm-anchor-id="a313x.search_index.0.i1.63ce3a81ssS8Fl" xmlns:xlink="http://www.w3.org/1999/xlink" width="16" height="16"><path d="M510.9248 977.4848h-465.92v-465.92c0-256.896 209.024-465.92 465.92-465.92 256.9216 0 465.92 209.024 465.92 465.92s-208.9984 465.92-465.92 465.92z m-404.48-61.44h404.48c223.0272 0 404.48-181.4528 404.48-404.48s-181.4528-404.48-404.48-404.48-404.48 181.4528-404.48 404.48v404.48z" fill="#ffffff" p-id="18560"></path><path d="M719.2064 482.7904H305.9456c-16.9728 0-30.72-13.7472-30.72-30.72s13.7472-30.72 30.72-30.72h413.2608c16.9728 0 30.72 13.7472 30.72 30.72s-13.7728 30.72-30.72 30.72zM561.792 686.5152h-253.9008c-16.9728 0-30.72-13.7472-30.72-30.72s13.7472-30.72 30.72-30.72h253.9008c16.9728 0 30.72 13.7472 30.72 30.72s-13.7728 30.72-30.72 30.72z" fill="#ffffff" p-id="18561"></path></svg>