<?xml version="1.0" standalone="no"?><!DOCTYPE svg PUBLIC "-//W3C//DTD SVG 1.1//EN" "http://www.w3.org/Graphics/SVG/1.1/DTD/svg11.dtd"><svg t="1713353908155" class="icon" viewBox="0 0 1024 1024" version="1.1" xmlns="http://www.w3.org/2000/svg" p-id="6454" xmlns:xlink="http://www.w3.org/1999/xlink" width="256" height="256"><path d="M825.48736 542.58688l-7.88992-1.80224c-18.5344-5.61664-34.98496-17.87904-45.44-35.93216-10.45504-18.16064-12.928-38.79424-8.36608-57.70752l2.46784-7.41376c3.13856-10.27072-0.95232-24.43264-9.22112-31.46752 0 0-7.40864-6.272-28.32384-18.34496-20.9152-11.9808-29.94688-15.30368-29.94688-15.30368-10.16832-3.70688-24.42752-0.19456-31.85152 7.69536l-5.51424 5.89824C647.33696 401.51552 628.41856 409.6 607.50848 409.6c-20.9152 0-40.0128-8.18176-54.08768-21.5808l-5.3248-5.7088c-7.31648-7.88992-21.66784-11.40736-31.8464-7.70048 0 0-9.12384 3.328-30.03904 15.3088-20.91008 12.16512-28.23168 18.44736-28.23168 18.44736-8.27392 6.9376-12.35968 21.00736-9.22112 31.37024l2.28352 7.50592c4.46464 18.9184 2.09408 39.4496-8.3712 57.60512-10.44992 18.1504-27.08992 30.5152-45.7216 36.02944l-7.6032 1.71008c-10.46016 2.37568-20.72576 13.02528-22.62528 23.67488 0 0-1.71008 9.50272-1.71008 33.64352 0 24.15104 1.71008 33.65376 1.71008 33.65376 1.89952 10.6496 12.07296 21.28896 22.62528 23.66464l7.41376 1.72032c18.63168 5.50912 35.36384 17.8688 45.81376 36.12672 10.46016 18.1504 12.928 38.784 8.36608 57.69728l-2.18112 7.31648c-3.13856 10.27072 0.9472 24.43264 9.22112 31.46752 0 0 7.41376 6.28224 28.32896 18.3552 20.91008 12.07296 29.94176 15.30368 29.94176 15.30368 10.17344 3.70688 24.43264 0.18432 31.8464-7.7056l5.22752-5.61152c14.17216-13.39904 33.17248-21.57568 54.18496-21.57568 21.00736 0 40.12032 8.2688 54.18496 21.67296l5.22752 5.61152c7.32672 7.88992 21.6832 11.41248 31.85664 7.70048 0 0 9.12384-3.32288 30.03392-15.3088 20.92032-12.06784 28.23168-18.35008 28.23168-18.35008 8.27904-6.93248 12.3648-21.09952 9.22112-31.45216l-2.26816-7.60832c-4.48-18.82112-2.0992-39.36256 8.36096-57.4208 10.46016-18.15552 27.1872-30.61248 45.81888-36.12672l7.40864-1.7152c10.46016-2.37568 20.73088-13.01504 22.62528-23.66464 0 0 1.71008-9.50784 1.71008-33.65376-0.1024-24.23296-1.80736-33.7408-1.80736-33.7408C846.208 555.70432 836.03968 544.96256 825.48736 542.58688zM607.50848 696.59136c-53.3248 0-96.67584-43.25376-96.67584-96.68608 0-53.32992 43.24864-96.58368 96.67584-96.58368 53.31968 0 96.67584 43.25376 96.67584 96.68608C704.09728 653.33248 660.82816 696.59136 607.50848 696.59136z" fill="#2c2c2c" p-id="6455"></path><path d="M864.47104 184.79616l-79.40096 0 0-16.66048c0-85.67296-65.89952-151.57248-151.57248-151.57248L167.31648 16.5632c-79.08352 0-151.57248 65.89952-151.57248 151.57248l0 467.33824c0 85.66272 65.89952 151.56736 151.57248 151.56736l26.35776 0c1.80224 0 3.52768-0.14336 5.21728-0.3584l0 76.88192c0 85.66272 65.89952 151.56736 151.56224 151.56736l514.01728 0c85.6576 0 151.56224-65.89952 151.56224-151.56736L1016.03328 336.36352C1016.02816 257.28 950.12864 184.79616 864.47104 184.79616zM198.89152 336.36352l0 385.21344c-1.70496-0.21504-3.4048-0.44544-5.21728-0.44544l-26.35776 0c-46.12608 0-85.67296-39.53664-85.67296-85.66272L81.64352 168.13056c0-46.1312 39.54688-85.67296 85.67296-85.67296l466.18112 0c46.1312 0 85.66784 39.54176 85.66784 85.67296l0 16.66048L350.45376 184.79104C264.79104 184.79616 198.89152 250.69568 198.89152 336.36352zM950.12864 863.55456c0 46.1312-39.53152 85.66272-85.6576 85.66272L350.45376 949.21728c-46.1312 0-85.66272-39.53664-85.66272-85.66272L264.79104 336.36352c0-46.1312 39.53664-85.66784 85.66272-85.66784l514.01728 0c46.1312 0 85.6576 39.53664 85.6576 85.66784L950.12864 863.55456z" fill="#2c2c2c" p-id="6456"></path></svg>