<?xml version="1.0" standalone="no"?><!DOCTYPE svg PUBLIC "-//W3C//DTD SVG 1.1//EN" "http://www.w3.org/Graphics/SVG/1.1/DTD/svg11.dtd"><svg t="1713357120067" class="icon" viewBox="0 0 1024 1024" version="1.1" xmlns="http://www.w3.org/2000/svg" p-id="8958" xmlns:xlink="http://www.w3.org/1999/xlink" width="256" height="256"><path d="M144 256h288A16 16 0 0 0 448 240v-32A16 16 0 0 0 432 192h-288a16 16 0 0 0-16 16v32c0 8.832 7.168 16 16 16z m0 576h288a16 16 0 0 0 16-16v-32a16 16 0 0 0-16-16h-288a16 16 0 0 0-16 16v32c0 8.832 7.168 16 16 16z m0-288h288A16 16 0 0 0 448 528v-32a16 16 0 0 0-16-16h-288a16 16 0 0 0-16 16v32c0 8.832 7.168 16 16 16z m588.928-353.856l158.4 158.4a16 16 0 0 1 0 22.656l-22.656 22.592a16 16 0 0 1-22.656 0l-92.288-92.224V464a16 16 0 0 1-12.288 15.552l-3.648 0.448h-32a16 16 0 0 1-16-16l-0.064-162.816L597.12 393.792a16 16 0 0 1-22.592 0L551.872 371.2a16 16 0 0 1 0-22.656l158.4-158.4a16 16 0 0 1 22.656 0z m4.864 350.848a16 16 0 0 1 16 16l-0.064 162.432L846.016 627.2a16 16 0 0 1 19.2-2.56l3.456 2.56 22.656 22.592a16 16 0 0 1 0 22.656l-158.4 158.4a16 16 0 0 1-22.656 0l-158.4-158.4a16 16 0 0 1 0-22.656l22.656-22.592a16 16 0 0 1 22.592 0l92.608 92.608V556.992a16 16 0 0 1 16-16h32z" p-id="8959" fill="#707070"></path></svg>