<?xml version="1.0" standalone="no"?><!DOCTYPE svg PUBLIC "-//W3C//DTD SVG 1.1//EN" "http://www.w3.org/Graphics/SVG/1.1/DTD/svg11.dtd"><svg t="1713352390511" class="icon" viewBox="0 0 1024 1024" version="1.1" xmlns="http://www.w3.org/2000/svg" p-id="9500" xmlns:xlink="http://www.w3.org/1999/xlink" width="16" height="16"><path d="M791.3 290m-113.1 0a113.1 113.1 0 1 0 226.2 0 113.1 113.1 0 1 0-226.2 0Z" fill="#ffffff" p-id="9501"></path><path d="M508.4 252m-143.3 0a143.3 143.3 0 1 0 286.6 0 143.3 143.3 0 1 0-286.6 0Z" fill="#ffffff" p-id="9502"></path><path d="M225.7 290m-113.1 0a113.1 113.1 0 1 0 226.2 0 113.1 113.1 0 1 0-226.2 0Z" fill="#ffffff" p-id="9503"></path><path d="M795.9 423c-42.3-0.1-82.9 16.2-113.4 45.5 37.7 38.8 58.8 90.7 58.7 144.8v218.5H960V587.1c0-90.6-73.5-164.1-164.1-164.1z" fill="#ffffff" p-id="9504"></path><path d="M502.8 420.6h18.9c109.6 0 198.5 88.9 198.5 198.5V900H304.3V619.1c0-109.7 88.9-198.5 198.5-198.5z" fill="#ffffff" p-id="9505"></path><path d="M285.3 613.3c-0.1-54 20.9-105.9 58.5-144.6-30.5-29.4-71.2-45.7-113.6-45.7-90.6 0-164.1 73.5-164.1 164.1v244.7h219.2V613.3z" fill="#ffffff" p-id="9506"></path></svg>