<?xml version="1.0" standalone="no"?><!DOCTYPE svg PUBLIC "-//W3C//DTD SVG 1.1//EN" "http://www.w3.org/Graphics/SVG/1.1/DTD/svg11.dtd"><svg t="1713352133052" class="icon" viewBox="0 0 1024 1024" version="1.1" xmlns="http://www.w3.org/2000/svg" p-id="8356" xmlns:xlink="http://www.w3.org/1999/xlink" width="16" height="16"><path d="M472.615385 80.541538C251.805538 100.430769 78.769231 286.011077 78.769231 512c0 239.261538 193.969231 433.230769 433.230769 433.230769s433.230769-193.969231 433.230769-433.230769c0-157.991385-85.267692-301.016615-220.297846-377.383385l38.774154-68.568615A511.763692 511.763692 0 0 1 1024 512c0 282.781538-229.218462 512-512 512S0 794.781538 0 512C0 242.491077 208.246154 21.602462 472.615385 1.496615V0h78.76923v443.766154a78.769231 78.769231 0 1 1-78.76923 0v-144.817231c-100.824615 18.510769-177.230769 106.870154-177.23077 213.051077 0 119.630769 96.984615 216.615385 216.615385 216.615385s216.615385-96.984615 216.615385-216.615385c0-79.478154-43.126154-151.355077-111.340308-189.361231l38.360615-68.804923A295.266462 295.266462 0 0 1 807.384615 512c0 163.131077-132.253538 295.384615-295.384615 295.384615-163.131077 0-295.384615-132.253538-295.384615-295.384615 0-149.779692 111.478154-273.526154 256-292.785231V80.541538z" fill="#ffffff" p-id="8357"></path></svg>