<?xml version="1.0" standalone="no"?><!DOCTYPE svg PUBLIC "-//W3C//DTD SVG 1.1//EN" "http://www.w3.org/Graphics/SVG/1.1/DTD/svg11.dtd"><svg t="1712659397032" class="icon" viewBox="0 0 1024 1024" version="1.1" xmlns="http://www.w3.org/2000/svg" p-id="5641" xmlns:xlink="http://www.w3.org/1999/xlink" width="200" height="200"><path d="M512 0C229.23 0 0 229.23 0 512c0 282.772 229.23 512 512 512s512-229.228 512-512C1024 229.23 794.77 0 512 0z m151.458 671.914c-47.748 0-84.534-19.914-90.016-61.914h-2.346c-28.178 32-68.096 56.086-106.45 56.086-59.486 0-104.884-41.53-104.884-115.836 0-85.96 65.748-188.498 168.284-188.498 29.742 0 54.01 12.248 69.664 40.248h1.564l10.174-34h46.962l-34.44 162.516c-16.436 65.564 0 95.462 47.748 95.462 55.57 0 118.188-61.906 118.188-167.538 0-131.858-83.748-228.01-242.642-228.01-155.758 0-306.04 123.848-306.04 313.984 0 158.812 111.144 249.146 259.862 249.146 53.224 0 103.318-15.294 142.456-36.424l18.786 39.34C609.448 824.888 554.656 838 494.388 838 322.974 838 186 736.012 186 546.604 186 328.786 355.85 186 550.746 186 726.854 186 838 295.278 838 455.546c0 142.058-95.492 216.368-174.542 216.368z" fill="#51d359" p-id="5642"></path><path d="M528.044 408.19c-68.876 0-111.144 77.22-111.144 138.414 0 52.454 26.614 73.578 61.834 73.578 24.266 0 50.876-14.57 80.62-48.08l25.046-129.672c-16.436-24.768-32.874-34.24-56.356-34.24z" fill="#51d359" p-id="5643"></path></svg>