<?xml version="1.0" standalone="no"?><!DOCTYPE svg PUBLIC "-//W3C//DTD SVG 1.1//EN" "http://www.w3.org/Graphics/SVG/1.1/DTD/svg11.dtd"><svg t="1712663729516" class="icon" viewBox="0 0 1024 1024" version="1.1" xmlns="http://www.w3.org/2000/svg" p-id="28021" data-spm-anchor-id="a313x.search_index.0.i73.526c3a81q6H4af" xmlns:xlink="http://www.w3.org/1999/xlink" width="200" height="200"><path d="M506.8 107.1C286 107.1 107.1 286 107.1 506.8S286 906.6 506.8 906.6s399.7-178.9 399.7-399.7-178.9-399.8-399.7-399.8zM306.9 404.5c0-63.1 52.2-114.2 116.6-114.2S540 341.5 540 404.5v38.1c0 63.1-52.2 114.2-116.6 114.2s-116.6-51.1-116.6-114.2v-38.1zM656.7 804c-45 22.8-95.9 35.9-149.9 35.9-130.5 0-243.1-75.2-297.8-184.4 23.3-39.1 65.8-65.5 114.5-65.5h199.8c73.6 0 133.2 59.6 133.2 133.2V804h0.2z m32.5-213.9L640 540.9l-50-51.1 49.7-49.7 50.5 50.5 100.5-100.5 49.2 49.2m-99.8 101.1l-49.7 49.7" fill="#eb782e" p-id="28022" data-spm-anchor-id="a313x.search_index.0.i67.526c3a81q6H4af" class=""></path></svg>