<?xml version="1.0" standalone="no"?><!DOCTYPE svg PUBLIC "-//W3C//DTD SVG 1.1//EN" "http://www.w3.org/Graphics/SVG/1.1/DTD/svg11.dtd"><svg t="1712663631396" class="icon" viewBox="0 0 1025 1024" version="1.1" xmlns="http://www.w3.org/2000/svg" p-id="25211" xmlns:xlink="http://www.w3.org/1999/xlink" width="200.1953125" height="200"><path d="M0 512a512.988417 512 0 1 0 1025.976834 0 512.988417 512 0 1 0-1025.976834 0Z" fill="#e75546" p-id="25212" data-spm-anchor-id="a313x.search_index.0.i59.526c3a81q6H4af" class=""></path><path d="M1024 563.397683c-15.769205 163.110548-108.46295 303.784031-241.450502 385.482626-8.792958-29.411336-13.561081-60.928-13.561081-93.707861 0-160.246116 113.952618-290.321792 255.011583-291.774765z" fill="#e75546" opacity=".3" p-id="25213" data-spm-anchor-id="a313x.search_index.0.i57.526c3a81q6H4af" class=""></path><path d="M340.015444 31.629344c-26.622023 134.399012-141.001637 228.015938-262.918919 211.639845C137.830795 146.285714 230.275459 70.962409 340.015444 31.629344z" fill="#e75546" fill-opacity=".4" p-id="25214" data-spm-anchor-id="a313x.search_index.0.i58.526c3a81q6H4af" class=""></path><path d="M712.091181 364.213869c-48.027181-48.078579-126.659707-48.078579-174.738285 0l-6.173653 6.173652a24.315058 24.315058 0 0 1-34.424587 0l-6.171675-6.173652c-48.080556-48.078579-126.659707-48.078579-174.738286 0-48.027181 48.027181-56.555243 170.395181 37.039938 268.855351 52.526456 55.297977 109.237869 83.809853 139.370749 96.157158a57.241205 57.241205 0 0 0 43.423135 0c30.134857-12.347305 86.84627-40.859181 139.372726-96.157158 93.593205-98.46017 85.065143-220.776772 37.039938-268.855351z" fill="#FFFFFF" p-id="25215"></path></svg>