<?xml version="1.0" standalone="no"?><!DOCTYPE svg PUBLIC "-//W3C//DTD SVG 1.1//EN" "http://www.w3.org/Graphics/SVG/1.1/DTD/svg11.dtd"><svg t="1712663198045" class="icon" viewBox="0 0 1135 1024" version="1.1" xmlns="http://www.w3.org/2000/svg" p-id="9951" xmlns:xlink="http://www.w3.org/1999/xlink" width="221.6796875" height="200"><path d="M1117.197275 289.396914l-519.393855-278.048103a38.370638 38.370638 0 0 0-30.585291-11.121924 35.590157 35.590157 0 0 0-27.80481 8.89754L17.795079 289.396914A66.731545 66.731545 0 0 0 0 333.88461v570.554706a122.897261 122.897261 0 0 0 119.560684 119.560684h895.870986a122.897261 122.897261 0 0 0 119.560684-119.560684V333.88461a66.731545 66.731545 0 0 0-17.795079-44.487696z m-549.42305 307.521201l-439.316002-269.150563 438.759906-222.438482L1006.53413 333.88461z m471.013485-181.843459v489.36466a21.131656 21.131656 0 0 1-23.35604 23.356041H119.560684a21.131656 21.131656 0 0 1-23.356041-23.356041V428.977061l433.75504 263.033505a38.370638 38.370638 0 0 0 30.029195 10.565828 36.70235 36.70235 0 0 0 28.917003-9.453636z" fill="#515151" p-id="9952"></path></svg>