<?xml version="1.0" standalone="no"?><!DOCTYPE svg PUBLIC "-//W3C//DTD SVG 1.1//EN" "http://www.w3.org/Graphics/SVG/1.1/DTD/svg11.dtd"><svg t="1713077448025" class="icon" viewBox="0 0 1024 1024" version="1.1" xmlns="http://www.w3.org/2000/svg" p-id="1013" xmlns:xlink="http://www.w3.org/1999/xlink" width="16" height="16"><path d="M512 512m-485.4784 0a485.4784 485.4784 0 1 0 970.9568 0 485.4784 485.4784 0 1 0-970.9568 0Z" fill="#00baad" p-id="1014"></path><path d="M240.64 357.4272v124.6208h244.9408V258.3552H339.712A99.072 99.072 0 0 0 240.64 357.4272zM684.288 258.3552h-145.8688v223.6928H783.36V357.4272a99.072 99.072 0 0 0-99.072-99.072zM240.64 666.5728a99.072 99.072 0 0 0 99.072 99.072h145.8688v-229.0176H240.64zM538.4192 765.6448h145.8688A99.072 99.072 0 0 0 783.36 666.5728v-129.9456h-244.9408z" fill="#FFFFFF" p-id="1015"></path></svg>