<?xml version="1.0" standalone="no"?><!DOCTYPE svg PUBLIC "-//W3C//DTD SVG 1.1//EN" "http://www.w3.org/Graphics/SVG/1.1/DTD/svg11.dtd"><svg t="1713084190800" class="icon" viewBox="0 0 1024 1024" version="1.1" xmlns="http://www.w3.org/2000/svg" p-id="1432" xmlns:xlink="http://www.w3.org/1999/xlink" width="16" height="16"><path d="M512 512m-485.4784 0a485.4784 485.4784 0 1 0 970.9568 0 485.4784 485.4784 0 1 0-970.9568 0Z" fill="#00baad" p-id="1433"></path><path d="M512 512m-279.1424 0a279.1424 279.1424 0 1 0 558.2848 0 279.1424 279.1424 0 1 0-558.2848 0Z" fill="#FFFFFF" p-id="1434"></path><path d="M619.52 578.2528c0-43.0592-27.5456-72.1408-81.92-87.04V413.952a58.9824 58.9824 0 0 1 21.6576 20.8896 25.6 25.6 0 0 0 45.568-23.3984A113.7664 113.7664 0 0 0 537.6 358.656v-34.816a25.6 25.6 0 0 0-51.2 0v30.72c-56.32 6.144-81.92 45.2608-81.92 84.1216 0 30.2592 22.2208 77.6192 81.92 93.7984v70.9632a53.4016 53.4016 0 0 1-31.6928-28.6208 25.6 25.6 0 0 0-49.152 14.4384c8.2432 28.0064 38.7072 58.9824 80.8448 66.9696v35.1744a25.6 25.6 0 0 0 51.2 0v-34.4576c20.48-2.6624 42.752-9.472 59.2896-24.9856a71.68 71.68 0 0 0 22.6304-53.7088zM455.68 438.8352c0-10.752 4.4544-27.6992 30.72-32.512v71.9872c-24.3712-11.6736-30.72-31.6928-30.72-39.4752z m106.1888 155.9552a50.432 50.432 0 0 1-24.32 10.24v-60.1088c30.72 11.52 30.72 26.6752 30.72 33.3312a20.48 20.48 0 0 1-6.3488 16.5376z" fill="#00baad" p-id="1435"></path></svg>