<svg xmlns="http://www.w3.org/2000/svg" xmlns:xlink="http://www.w3.org/1999/xlink" width="42" height="42" viewBox="0 0 42 42" fill="none">
<path d="M21 0C9.40202 0 0 9.40202 0 21C0 32.598 9.40202 42 21 42C32.598 42 42 32.598 42 21C42 9.40202 32.598 0 21 0Z"   fill="#43CF7C" >
</path>
<path d="M21.5106 7.38482C28.665 7.38482 34.5078 13.168 34.6151 20.3105L21.9041 18.1523L17.5399 17.413L19.3285 21.4672L24.5273 33.272C23.5377 33.5105 22.5241 33.6297 21.5106 33.6297C17.6353 33.6297 13.9627 31.9008 11.4348 28.872C8.94265 25.8791 7.90526 21.9561 8.60878 18.1165C9.5627 12.7864 13.7838 8.5653 19.1019 7.61138C19.9008 7.46829 20.7117 7.38482 21.5106 7.38482ZM21.5106 5C20.5805 5 19.6266 5.08347 18.6726 5.26233C12.4125 6.39512 7.39253 11.4152 6.25974 17.6753C4.48306 27.3934 12.0668 36.0026 21.4986 36.0026C23.645 36.0026 25.7794 35.5495 27.7468 34.691L21.4986 20.5013L36.7853 23.1008C36.9284 22.2422 36.9999 21.3718 36.9999 20.5013C36.9999 11.9994 30.0005 5 21.5106 5Z"   fill="#FFFFFF" >
</path>
</svg>
