<svg xmlns="http://www.w3.org/2000/svg" xmlns:xlink="http://www.w3.org/1999/xlink" width="42" height="42" viewBox="0 0 42 42" fill="none">
<path d="M21 0C9.40202 0 0 9.40202 0 21C0 32.598 9.40202 42 21 42C32.598 42 42 32.598 42 21C42 9.40202 32.598 0 21 0Z"   fill="#B82828" >
</path>
<path   fill="rgba(255, 255, 255, 1)"  d="M12 13.7297L30.7027 13.7297C33.4641 13.7297 35.7027 15.9683 35.7027 18.7297L35.7027 29C35.7027 31.7614 33.4641 34 30.7027 34L12 34C9.23858 34 7 31.7614 7 29L7 18.7297C7 15.9683 9.23858 13.7297 12 13.7297ZM12 15.7297C10.3431 15.7297 9 17.0729 9 18.7297L9 29C9 30.6569 10.3431 32 12 32L30.7027 32C32.3596 32 33.7027 30.6569 33.7027 29L33.7027 18.7297C33.7027 17.0729 32.3596 15.7297 30.7027 15.7297L12 15.7297Z">
</path>
<path    stroke="rgba(255, 255, 255, 1)" stroke-width="2"    d="M14.3653 19.6486C14.3653 19.6486 13.3107 6.94654 21.8979 7.00017C30.4851 7.0538 29.0318 19.6486 29.0318 19.6486">
</path>
</svg>
