<?xml version="1.0" encoding="UTF-8"?>
<svg id="_图层_1" data-name="图层 1" xmlns="http://www.w3.org/2000/svg" viewBox="0 0 23.61 24.69">
  <path d="m11.81,0C5.29,0,0,4.9,0,10.95c0,5.27,4.03,9.69,9.4,10.72,0,0,0,0,0,0l6.49,2.99c.2.09.4-.14.27-.32l-1.84-2.67c5.31-1.07,9.3-5.45,9.3-10.7C23.61,4.9,18.33,0,11.81,0h0Zm-5.88,12.8c-1.08,0-1.97-.82-1.97-1.82s.89-1.82,1.97-1.82,1.97.82,1.97,1.82-.89,1.82-1.97,1.82h0Zm5.93,0c-1.08,0-1.97-.82-1.97-1.82s.89-1.82,1.97-1.82,1.97.82,1.97,1.82-.89,1.82-1.97,1.82h0Zm5.88,0c-1.08,0-1.97-.82-1.97-1.82s.89-1.82,1.97-1.82,1.97.82,1.97,1.82-.89,1.82-1.97,1.82h0Zm0,0"/>
</svg>