<svg xmlns="http://www.w3.org/2000/svg" xmlns:xlink="http://www.w3.org/1999/xlink" width="42" height="42" viewBox="0 0 42 42" fill="none">
<path d="M21 0C9.40202 0 0 9.40202 0 21C0 32.598 9.40202 42 21 42C32.598 42 42 32.598 42 21C42 9.40202 32.598 0 21 0Z"   fill="#FFC300" >
</path>
<path   fill="rgba(255, 255, 255, 1)"  d="M14 7L27.164 7C30.4777 7 33.164 9.68629 33.164 13L33.164 28.2322C33.164 31.5459 30.4777 34.2322 27.164 34.2322L14 34.2322C10.6863 34.2322 8 31.5459 8 28.2322L8 13C8 9.68629 10.6863 7 14 7ZM14 9C11.7909 9 10 10.7909 10 13L10 28.2322C10 30.4413 11.7909 32.2322 14 32.2322L27.164 32.2322C29.3731 32.2322 31.164 30.4413 31.164 28.2322L31.164 13C31.164 10.7909 29.3731 9 27.164 9L14 9Z">
</path>
<path    stroke="rgba(255, 255, 255, 1)" stroke-width="2"    d="M12.3326 12.2848L28.5192 12.2848">
</path>
<path    stroke="rgba(255, 255, 255, 1)" stroke-width="2"    d="M14.713 17.0455L28.5192 17.0455">
</path>
<path    stroke="rgba(255, 255, 255, 1)" stroke-width="2"    d="M12.8086 20.8542L28.5192 20.8542">
</path>
<path    stroke="rgba(255, 255, 255, 1)" stroke-width="2"    d="M18.9977 24.6628L28.5193 24.6628">
</path>
</svg>
