<?xml version="1.0" standalone="no"?><!DOCTYPE svg PUBLIC "-//W3C//DTD SVG 1.1//EN" "http://www.w3.org/Graphics/SVG/1.1/DTD/svg11.dtd"><svg t="1712972444991" class="icon" viewBox="0 0 1024 1024" version="1.1" xmlns="http://www.w3.org/2000/svg" p-id="9146" xmlns:xlink="http://www.w3.org/1999/xlink" width="16" height="16"><path d="M686.08 15.36c-30.72 0-51.2 25.6-51.2 56.32s25.6 56.32 51.2 56.32H819.2L568.32 389.12c-56.32-40.96-128-66.56-204.8-66.56-194.56 0-348.16 158.72-348.16 353.28S174.08 1024 368.64 1024 716.8 865.28 716.8 670.72c0-76.8-25.6-148.48-66.56-209.92l250.88-256v138.24c0 30.72 25.6 56.32 51.2 56.32s51.2-25.6 51.2-56.32V15.36H686.08zM368.64 916.48c-133.12 0-245.76-107.52-245.76-240.64S230.4 435.2 368.64 435.2 614.4 542.72 614.4 675.84c0 128-112.64 240.64-245.76 240.64z" fill="#1296db" p-id="9147"></path></svg>