<?xml version="1.0" standalone="no"?><!DOCTYPE svg PUBLIC "-//W3C//DTD SVG 1.1//EN" "http://www.w3.org/Graphics/SVG/1.1/DTD/svg11.dtd"><svg t="1712972549193" class="icon" viewBox="0 0 1024 1024" version="1.1" xmlns="http://www.w3.org/2000/svg" p-id="10366" xmlns:xlink="http://www.w3.org/1999/xlink" width="16" height="16"><path d="M924 274.2C862.9 146.5 731.8 63.9 590.2 63.9c-55.4 0-109 12.2-159.4 36.3-89.1 42.6-156.3 117.4-189.2 210.5-32.9 93.1-27.5 193.5 15.1 282.6 13.3 27.8 30.4 53 49.7 76.1l-83.5 83.5-86.6-86.6c-13.3-13.3-34.9-13.3-48.2 0-13.3 13.3-13.3 34.9 0 48.2l86.6 86.6L74.2 901.8c-13.3 13.3-13.3 34.9 0 48.2 6.4 6.4 15.1 10 24.1 10 9 0 17.7-3.6 24.1-10l100.7-100.7 86.6 86.6c6.7 6.7 15.4 10 24.1 10 8.7 0 17.4-3.3 24.1-10 13.3-13.3 13.3-34.9 0-48.2l-86.6-86.6 83.2-83.2c65.4 54.1 148.7 85.8 236.2 85.8 55.4 0 109-12.2 159.3-36.3 183.9-88 261.9-309.3 174-493.2zM720.6 705.9c-41 19.6-84.8 29.6-129.9 29.6-115.6 0-222.5-67.3-272.3-171.5-34.8-72.7-39.2-154.5-12.4-230.5 26.8-76 81.6-137 154.3-171.7 41.1-19.6 84.8-29.6 129.9-29.6 115.5 0 222.4 67.3 272.3 171.5 71.7 150 8.1 330.4-141.9 402.2z" fill="#f35aa5" p-id="10367"></path></svg>