<?xml version="1.0" standalone="no"?><!DOCTYPE svg PUBLIC "-//W3C//DTD SVG 1.1//EN" "http://www.w3.org/Graphics/SVG/1.1/DTD/svg11.dtd"><svg t="1713062817809" class="icon" viewBox="0 0 1024 1024" version="1.1" xmlns="http://www.w3.org/2000/svg" p-id="7338" xmlns:xlink="http://www.w3.org/1999/xlink" width="16" height="16"><path d="M280.974222 850.716444l-136.419555-49.664a29.980444 29.980444 0 0 1 20.48-56.32l23.495111 8.533334A424.675556 424.675556 0 0 1 113.777778 504.945778 418.133333 418.133333 0 0 1 236.657778 208.213333 418.133333 418.133333 0 0 1 540.444444 85.333333c86.129778 0 166.343111 25.543111 233.415112 69.404445l148.309333 54.044444a29.980444 29.980444 0 0 1-20.48 56.32l-17.976889-6.542222a426.666667 426.666667 0 0 1-602.737778 592.213333z" fill="#E02B2B" p-id="7339"></path><path d="M195.640889 850.716444l-136.419556-49.664a29.980444 29.980444 0 0 1 20.48-56.32l23.495111 8.533334A424.675556 424.675556 0 0 1 28.444444 504.945778 418.133333 418.133333 0 0 1 151.324444 208.213333 418.133333 418.133333 0 0 1 455.111111 85.333333c86.129778 0 166.343111 25.543111 233.415111 69.404445l148.309334 54.044444a29.980444 29.980444 0 0 1-20.48 56.32l-17.976889-6.542222a426.666667 426.666667 0 0 1-602.737778 592.213333z" fill="#E02B2B" opacity=".199" p-id="7340"></path><path d="M508.472889 736.028444a31.971556 31.971556 0 1 0 63.943111 0V640h128a31.971556 31.971556 0 1 0 0-64h-128V512h128a32.028444 32.028444 0 0 0 0-64h-75.719111l81.237333-81.237333a32.028444 32.028444 0 0 0-45.226666-45.283556L540.956444 441.230222 422.115556 322.56a31.971556 31.971556 0 1 0-45.226667 45.226667l80.213333 80.270222H380.529778a32.028444 32.028444 0 0 0 0 64h128v64h-128a31.971556 31.971556 0 1 0 0 64h128v96.028444z" fill="#FFFFFF" p-id="7341"></path></svg>