<?xml version="1.0" standalone="no"?><!DOCTYPE svg PUBLIC "-//W3C//DTD SVG 1.1//EN" "http://www.w3.org/Graphics/SVG/1.1/DTD/svg11.dtd"><svg t="1713100939982" class="icon" viewBox="0 0 1024 1024" version="1.1" xmlns="http://www.w3.org/2000/svg" p-id="4301" xmlns:xlink="http://www.w3.org/1999/xlink" width="16" height="16"><path d="M396.961234 844.017576a114.988771 29.997071 0 1 0 229.977542 0 114.988771 29.997071 0 1 0-229.977542 0Z" fill="#00baad" opacity=".502" p-id="4302"></path><path d="M206.979787 844.017576a304.970218 79.992188 0 1 0 609.940436 0 304.970218 79.992188 0 1 0-609.940436 0Z" fill="#00baad" opacity=".502" p-id="4303"></path><path d="M511.950005 287.071966c22.097842 0 39.996094 17.898252 39.996094 39.996094s-17.898252 39.996094-39.996094 39.996094-39.996094-17.898252-39.996094-39.996094 17.898252-39.996094 39.996094-39.996094m0-59.994142c-55.19461 0-99.990235 44.795625-99.990235 99.990236s44.795625 99.990235 99.990235 99.990235 99.990235-44.795625 99.990235-99.990235-44.795625-99.990235-99.990235-99.990236z" fill="#00baad" p-id="4304"></path><path d="M511.950005 160.084367c45.395567 0 88.091397 17.698272 120.188263 49.695147 32.096866 31.996875 49.795137 74.592716 49.795137 119.888292 0 9.599063-3.099697 39.596133-31.496924 110.68919-18.298213 45.795528-44.095694 100.990138-76.49253 164.083977-21.597891 41.995899-43.295772 81.991993-61.893956 115.188751-18.598184-33.296748-40.296065-73.192852-61.893956-115.188751-32.496826-63.093838-58.194317-118.288448-76.49253-164.083977-28.497217-70.993067-31.496924-101.090128-31.496924-110.68919 0-45.295577 17.698272-87.891417 49.795137-119.888292 31.896885-31.996875 74.592716-49.695147 119.988283-49.695147m0-59.994141c-126.987599 0-229.977541 102.789962-229.977541 229.67757 0 126.787618 229.977541 510.250171 229.977541 510.250171s229.977541-383.462552 229.977541-510.250171c0-126.887609-102.989942-229.677571-229.977541-229.67757z" fill="#00baad" p-id="4305"></path></svg>