<svg xmlns="http://www.w3.org/2000/svg" xmlns:xlink="http://www.w3.org/1999/xlink" width="24.28124237060547" height="30.9632568359375" viewBox="0 0 24.28124237060547 30.9632568359375" fill="none">
<g >
<path     fill="#00BAAD"  d="M3.09791 25.0672Q3.03391 24.8832 2.91791 24.5872Q2.80191 24.2912 2.73791 24.1312L2.60991 23.8192L3.18591 23.6432L3.36191 24.0912Q3.60991 24.7072 3.67391 24.8912L3.09791 25.0672ZM6.75392 26.6752L6.75392 29.9952L8.67391 29.9952L8.67391 30.5952L4.10591 30.5952L4.10591 29.9952L6.12192 29.9952L6.12192 26.6752L4.51391 26.6752L4.51391 26.0592L6.12192 26.0592L6.12192 23.6592L6.75392 23.6592L6.75392 26.0592L8.41792 26.0592L8.41792 26.6752L6.75392 26.6752ZM4.37791 28.6512Q3.97791 28.2992 3.44991 27.8752L3.44991 30.9632L2.85791 30.9632L2.85791 27.8832Q2.37791 28.4352 1.80191 28.8912L1.59391 28.2832Q2.24991 27.7152 2.70191 27.1472Q3.15391 26.5792 3.54591 25.8272L1.76991 25.8272L1.76991 25.2352L4.20991 25.2352L4.20991 25.8272Q3.89791 26.4912 3.44991 27.1312L3.44991 27.1792Q4.39391 27.9072 4.72992 28.2032L4.37791 28.6512ZM16.8313 24.7472L16.8313 30.0192L22.5433 30.0192L22.5433 30.6192L16.1993 30.6192L16.1993 24.1392L22.3913 24.1392L22.3913 24.7472L16.8313 24.7472ZM17.1913 29.1232Q18.1433 28.4032 19.2073 27.3232Q17.9753 26.0832 17.4233 25.5552L17.8393 25.0912Q18.7353 25.9392 19.6473 26.8512Q20.4873 25.9552 21.1673 25.0112L21.6713 25.3952Q20.9513 26.3792 20.1033 27.2992Q21.4953 28.7072 21.9913 29.2272L21.5193 29.7072Q20.5113 28.6352 19.6553 27.7792Q18.5673 28.8912 17.5913 29.6592L17.1913 29.1232Z">
</path>
</g>
<path d="M12.5806 1.69465C17.6646 1.69465 21.8164 5.80418 21.8927 10.8797L12.8602 9.34601L9.75904 8.82067L11.03 11.7016L14.7243 20.0901C14.0211 20.2596 13.3008 20.3443 12.5806 20.3443C9.82683 20.3443 7.21707 19.1157 5.42074 16.9635C3.64984 14.8367 2.91266 12.049 3.41259 9.32059C4.09044 5.53304 7.08997 2.53351 10.869 1.85564C11.4367 1.75397 12.0129 1.69465 12.5806 1.69465ZM12.5806 0C11.9197 0 11.2418 0.0593128 10.564 0.186412C6.11555 0.991372 2.54832 4.55862 1.74336 9.00708C0.480844 15.9128 5.86983 22.0305 12.5721 22.0305C14.0973 22.0305 15.614 21.7085 17.0121 21.0984L12.5721 11.0152L23.4348 12.8624C23.5365 12.2523 23.5873 11.6338 23.5873 11.0152C23.5873 4.9738 18.6136 0 12.5806 0Z"   fill="#00BAAD" >
</path>
<path d="M20.274 12.3523L12.7819 11.0146L15.8442 18.3168C14.8799 18.7586 13.8338 18.9918 12.7819 18.9918C8.15922 18.9918 4.44237 14.5614 5.31314 9.56026C5.86833 6.33871 8.3287 3.75531 11.3968 3.17236C16.1598 2.25805 20.3792 6.16075 20.3792 11.0146C20.3792 11.4625 20.3442 11.9105 20.274 12.3523Z"   fill="#00BAAD" >
</path>
</svg>
