<svg xmlns="http://www.w3.org/2000/svg" xmlns:xlink="http://www.w3.org/1999/xlink" width="24.28120994567871" height="29.639801025390625" viewBox="0 0 24.28120994567871 29.639801025390625" fill="none">
<g >
<path     fill="#00BAAD"  d="M5.4659 25.0078Q5.7299 26.2958 6.5099 27.2478Q7.2899 28.1998 8.7219 28.9758L8.3379 29.5758Q5.9539 28.1838 5.2099 26.1598Q4.8419 27.1838 4.0299 28.0318Q3.2179 28.8798 2.0579 29.5998L1.6659 28.9918Q3.0419 28.2238 3.8859 27.1958Q4.7299 26.1678 4.8339 24.8878L1.7939 24.8878L1.7939 24.2718L4.8419 24.2718L4.8419 22.3038L5.4819 22.3038L5.4819 24.2718L8.5539 24.2718L8.5539 24.8878L5.4739 24.8878Q5.4659 24.9278 5.4659 25.0078ZM22.5513 22.7598L22.5513 23.3838L17.0153 23.3838L17.0153 24.8158Q17.0153 26.2558 16.9513 27.0398Q16.8873 27.8238 16.7193 28.3798Q16.5513 28.9358 16.1833 29.6398L15.5833 29.2958Q15.9353 28.6478 16.0953 28.1358Q16.2553 27.6238 16.3153 26.8958Q16.3753 26.1678 16.3753 24.7998L16.3753 22.7598L22.5513 22.7598ZM22.6153 24.6158L22.6153 25.2478L20.5913 25.2478L20.5913 28.4318Q20.5913 28.8318 20.4953 29.0478Q20.3993 29.2638 20.1633 29.3518Q19.9273 29.4398 19.4713 29.4398L18.4393 29.4398L18.3113 28.7998L19.3113 28.7998Q19.5833 28.7998 19.7193 28.7518Q19.8553 28.7038 19.9073 28.5838Q19.9593 28.4638 19.9593 28.2318L19.9593 25.2478L17.3753 25.2478L17.3753 24.6158L22.6153 24.6158Z">
</path>
</g>
<g  clip-path="url(#clip-path-pF16KOo8p-cBAnasjTonH)">
<rect  x="2.0812225341796875" y="0" width="8.797352836081448" height="8.493972778320312" rx="4.246986389160156"    fill="#00BAAD" >
</rect>
<rect  x="13.40258502960205" y="0" width="8.797359466552734" height="8.50281047821045" rx="0.72"    fill="#00BAAD" >
</rect>
<rect  x="2.0812225341796875" y="10.930938720703125" width="8.797352836081448" height="8.502805709838867" rx="0.73"    fill="#00BAAD" >
</rect>
<rect  x="13.40258502960205" y="10.922119140625" width="8.797359466552734" height="8.502806663513184" rx="4.251403331756592"    fill="#00BAAD" >
</rect>
</g>
<defs>
<clipPath id="clip-path-pF16KOo8p-cBAnasjTonH">
<path d="M2.08122 19.425L22.2 19.425L22.2 0L2.08122 0L2.08122 19.425Z" fill="white"/>
</clipPath>
</defs>
</svg>
