<svg xmlns="http://www.w3.org/2000/svg" xmlns:xlink="http://www.w3.org/1999/xlink" width="24.28125" height="32.39862060546875" viewBox="0 0 24.28125 32.39862060546875" fill="none">
<g >
<path     fill="#00BAAD"  d="M5.16192 26.3986Q4.84192 25.7826 4.48192 25.2066L5.05792 24.9586Q5.41792 25.5186 5.74592 26.1186L5.16192 26.3986ZM5.48192 29.4306L5.48192 31.3986L8.60992 31.3986L8.60992 31.9986L1.72992 31.9986L1.72992 31.3986L4.84992 31.3986L4.84992 29.4306L2.32992 29.4306L2.32992 28.8146L4.84992 28.8146L4.84992 27.0946L1.98592 27.0946L1.98592 26.4786L8.35392 26.4786L8.35392 27.0946L5.48192 27.0946L5.48192 28.8146L8.00992 28.8146L8.00992 29.4306L5.48192 29.4306ZM15.7753 25.4786L22.4473 25.4786L22.4473 26.0706L19.4473 26.0706L19.1593 27.1186L21.7433 27.1186L21.7433 30.4466L21.1273 30.4466L21.1273 27.7106L17.1193 27.7106L17.1193 30.4786L16.4953 30.4786L16.4953 27.1186L18.4713 27.1186Q18.6073 26.6786 18.7593 26.0706L15.7753 26.0706L15.7753 25.4786ZM19.3913 29.1266Q19.3753 29.6786 19.2793 30.0786Q20.3033 30.5906 21.7673 31.3666L22.4153 31.7026L22.1113 32.3346Q20.5433 31.4386 19.0393 30.6386Q18.7193 31.1666 17.9833 31.5826Q17.2473 31.9986 15.9033 32.3986L15.6153 31.7586Q16.9753 31.3906 17.6393 31.0306Q18.3033 30.6706 18.5233 30.2386Q18.7433 29.8066 18.7753 29.0946Q18.7833 28.9826 18.7833 28.1986L19.3993 28.1986L19.3913 29.1266Z">
</path>
</g>
<path d="M9.92485 21.9913L9.92485 15.1114C9.92485 14.9677 10.0398 14.8527 10.1836 14.8527L14.1122 14.8527C14.256 14.8527 14.371 14.9677 14.371 15.1114L14.371 21.9913C14.371 22.135 14.4859 22.25 14.6297 22.25L19.6699 22.25C19.8136 22.25 19.9286 22.135 19.9286 21.9913L19.9286 12.6488C19.9286 12.5051 20.0436 12.3901 20.1873 12.3901L22.6307 12.3901C22.8607 12.3901 22.9853 12.1122 22.8128 11.9397L12.3396 1.46653C12.2341 1.36113 12.0713 1.36113 11.9658 1.46653L1.46386 11.9397C1.30096 12.1026 1.41595 12.3901 1.64592 12.3901L4.08935 12.3901C4.23308 12.3901 4.34807 12.5051 4.34807 12.6488L4.34807 21.9913C4.34807 22.135 4.46305 22.25 4.60679 22.25L9.64697 22.25C9.7907 22.25 9.90569 22.135 9.90569 21.9913L9.92485 21.9913Z"   fill="#00BAAD" >
</path>
</svg>
