<svg xmlns="http://www.w3.org/2000/svg" xmlns:xlink="http://www.w3.org/1999/xlink" width="32" height="30.83123779296875" viewBox="0 0 32 30.83123779296875" fill="none">
<g >
<path     fill="#00BAAD"  d="M0.392 26.5276Q1.44 25.8636 2.304 25.0036Q3.168 24.1436 3.728 23.2236L4.264 23.2236Q5.504 25.1596 7.616 26.5356L7.24 27.1596Q6.24 26.4716 5.404 25.6436Q4.568 24.8156 4 23.9436Q3.4 24.8396 2.568 25.6596Q1.736 26.4796 0.744 27.1596L0.392 26.5276ZM3.664 25.8316L4.328 25.8316L4.328 30.6316L3.664 30.6316L3.664 25.8316ZM12.272 24.8396Q12.464 26.4476 13.264 27.6756Q14.064 28.9036 15.48 29.9276L15.016 30.5756Q13.824 29.6156 13.096 28.6076Q12.368 27.5996 12.024 26.4316Q11.696 27.6076 10.952 28.6156Q10.208 29.6236 8.984 30.5676L8.536 29.9916Q9.672 29.1516 10.352 28.2996Q11.032 27.4476 11.344 26.4356Q11.656 25.4236 11.656 24.1036L11.656 23.3036L12.288 23.3036L12.288 24.3516Q12.288 24.5196 12.272 24.8396ZM20.296 23.2796L20.296 24.8476L23.04 24.8476L23.04 28.1436L20.296 28.1436L20.296 30.6076L19.68 30.6076L19.68 28.1436L16.96 28.1436L16.96 24.8476L19.68 24.8476L19.68 23.2796L20.296 23.2796ZM17.584 25.4716L17.584 27.5276L19.68 27.5276L19.68 25.4716L17.584 25.4716ZM20.296 25.4716L20.296 27.5276L22.416 27.5276L22.416 25.4716L20.296 25.4716ZM27.552 23.2956Q27.888 23.7036 28.384 24.3796Q28.88 25.0556 29.2 25.5436L28.664 25.9436Q28.376 25.4796 27.896 24.7916Q27.416 24.1036 27.072 23.6716L27.552 23.2956ZM27.016 29.0556Q27.016 29.3276 27.076 29.4636Q27.136 29.5996 27.28 29.6556Q27.424 29.7116 27.704 29.7116L28.616 29.7116Q28.936 29.7116 29.092 29.6596Q29.248 29.6076 29.316 29.4756Q29.384 29.3436 29.4 29.0716Q29.416 28.7916 29.424 28.4396Q29.432 28.0876 29.432 27.8636L30.064 28.0076L30.008 29.3036Q29.984 29.7036 29.86 29.9316Q29.736 30.1596 29.468 30.2556Q29.2 30.3516 28.736 30.3516L27.552 30.3516Q27.104 30.3516 26.848 30.2476Q26.592 30.1436 26.476 29.8916Q26.36 29.6396 26.36 29.1836L26.36 24.9196L27.016 24.9196L27.016 29.0556ZM30.336 25.4876Q30.776 26.4556 31.568 28.4956L30.968 28.7676Q30.688 27.9836 30.348 27.1156Q30.008 26.2476 29.776 25.7436L30.336 25.4876ZM24.424 28.6636Q24.912 27.3596 25.28 25.6316L25.912 25.7756Q25.528 27.5436 25.016 28.8636L24.424 28.6636Z">
</path>
</g>
<g  clip-path="url(#clip-path-rB-nO4H9aHrueFU7By_XR)">
<path     fill="#00BAAD"  d="M26.2 20.8125L26.2 20.3553C26.2 16.1397 22.72 12.7015 18.442 12.7015L12.6235 12.7015C9.01367 12.7015 6.08124 15.5911 6.08124 19.1482L6.08124 20.8033M15.9086 12.1162C19.7319 12.1162 22.7479 8.65968 21.9127 4.74591C21.4301 2.45983 19.5556 0.612683 17.2356 0.128034C13.2731 -0.68581 9.76534 2.29524 9.76534 6.0627C9.76534 9.40953 12.5215 12.1254 15.9086 12.1254L15.9086 12.1162Z">
</path>
</g>
<defs>
<clipPath id="clip-path-rB-nO4H9aHrueFU7By_XR">
<path d="M6.08124 20.8125L26.2 20.8125L26.2 0L6.08124 0L6.08124 20.8125Z" fill="white"/>
</clipPath>
</defs>
</svg>
