<?xml version="1.0" standalone="no"?><!DOCTYPE svg PUBLIC "-//W3C//DTD SVG 1.1//EN" "http://www.w3.org/Graphics/SVG/1.1/DTD/svg11.dtd"><svg t="1713272299448" class="icon" viewBox="0 0 1024 1024" version="1.1" xmlns="http://www.w3.org/2000/svg" p-id="19583" xmlns:xlink="http://www.w3.org/1999/xlink" width="16" height="16"><path d="M672.006715 792.986579l57.127092 0c142.831033-47.609321 225.345328-160.287613 247.570515-338.027713 3.171226-95.218642-11.112082-166.633135-42.850947-214.238362C851.330894 104.238063 718.022749 34.415834 533.936103 31.242562c-66.648956-3.174296-146.423861 2.695389-228.522694 42.843784C137.677151 156.124803 61.01719 304.19721 48.326147 469.245244c-6.346545 92.045369 7.93267 179.325202 42.849924 261.853823 79.347163 165.04087 206.303646 252.320703 380.87252 261.847683 155.521053 6.345522 293.585525-42.850947 414.19444-147.589406l-52.363601-57.135278c-142.828986 117.443829-298.357202 150.767795-466.570321 99.985202-146.002258-63.481823-225.349421-184.091762-238.048651-361.833909 3.173273-79.347163 22.218024-152.342664 57.136302-218.99776C256.216941 180.418093 368.613824 100.941993 524.416286 102.651938c229.29529 2.52245 353.893053 114.263393 376.1121 285.657972 3.176342 158.695349-53.956889 265.027096-171.387415 318.985008l-28.568662 0c-22.219047-15.873526-30.15274-38.086433-23.805172-66.656119l119.016651-395.157875-95.211479 0L686.283884 297.851689l-28.564569-38.084387c-79.346139-53.957913-161.867598-55.543014-247.567445-4.761444-76.17389 57.130162-125.370359 129.33567-147.589406 216.615503-22.211884 87.285972-20.630876 158.702512 4.759397 214.245526 25.391297 55.540967 69.833485 88.075964 133.310192 97.595782 73.001641 6.346545 138.063449-20.624736 195.192587-80.933287l0 4.765537C595.825662 748.550531 621.223099 777.116123 672.006715 792.986579L672.006715 792.986579zM457.763237 697.766914l-61.895699-4.764514c-47.605228-15.866363-68.236104-57.120952-61.888536-123.777071 25.390273-158.697395 93.632517-249.155616 204.718545-271.373641 66.654073 3.178389 104.738459 28.564569 114.26237 76.172867C643.441123 539.072589 578.379315 646.986367 457.763237 697.766914L457.763237 697.766914zM457.763237 697.766914" fill="#ffffff" p-id="19584"></path></svg>